<?xml version="1.0" standalone="no"?><!DOCTYPE svg PUBLIC "-//W3C//DTD SVG 1.1//EN" "http://www.w3.org/Graphics/SVG/1.1/DTD/svg11.dtd"><svg class="icon" width="200px" height="200.00px" viewBox="0 0 1024 1024" version="1.1" xmlns="http://www.w3.org/2000/svg"><path fill="#333333" d="M672.13976 498.752972h79.991041v24.397139h-79.991041zM672.13976 586.743629l79.991041-4.199978V559.146848h-79.991041zM760.268642 185.499352H263.259347c-144.263394 0-261.211576 116.948182-261.211576 261.211576v126.720144c0 144.262371 116.948182 261.211576 261.211576 261.211576H760.268642c144.262371 0 261.211576-116.949206 261.211576-261.211576V446.710928c0-144.263394-116.949206-261.211576-261.211576-261.211576zM630.145104 303.574832c11.998912 19.19785 24.797479 40.795687 38.395699 64.792487l-51.194266 20.397843c-11.998912-25.327851-23.731614-47.860496-35.196058-67.592813l47.994625-17.597517zM243.387781 646.336826c0 12.398227-2.634457 22.197834-7.899276 29.396772-5.268914 7.198938-12.598909 11.763418-21.997152 13.698562-9.399267 1.931048-26.76641 2.899643-52.094261 2.899643-1.199994-15.867151-3.868239-30.866047-7.999617-44.994641l-8.398931 17.798199c-10.398579-6.399283-24.666421-13.067848-42.795335-19.997504 13.329963-25.062665 24.928536-54.393908 34.795719-87.990657l44.794983 13.598221c-7.198938 24.131953-15.733022 47.463228-25.597133 69.991776 6.530341 0.534468 13.063753 0.799654 19.598189 0.799655 10.130321 0 15.329611-5.998944 15.597869-17.997856v-73.591758h-75.19209v-44.794983h75.19209v-25.997472h-81.591374v-44.794983h42.994993c-5.599629-10.929976-11.398915-21.328555-17.39786-31.196762l43.59499-17.598541c10.66479 17.73267 19.598189 33.996064 26.797126 48.794279h17.598541c13.198906-22.263363 22.263363-38.796039 27.197466-49.594958H117.002448v-44.794983h71.19177c-3.599981-9.729982-7.06788-18.529253-10.398579-26.396787l55.193562-9.999264c3.865167 10.398579 7.864463 22.53162 11.998912 36.396051h67.192475v44.794983h-54.794247c7.329995 3.333771 21.597837 9.598925 42.795335 18.797511-4.399635 6.799622-11.199258 17.067144-20.397844 30.796423h41.195002v44.794983h-77.591053v25.997472h70.392116v44.794983h-70.392116v96.391636z m260.771305-211.976002v52.394259h-30.397107v207.976707h-52.794599V486.755083H385.772345v22.797831c0 84.390676-18.267138 148.783848-54.794247 193.178492-18.131985-15.733022-34.930872-29.066057-50.394611-39.996032 15.198554-13.467164 27.062313-30.196426 35.596397-50.193931l-40.795687 22.997489c-9.333739-21.062345-19.467132-40.795687-30.397108-59.193883l38.3957-19.197849c9.464796 12.798567 20.463372 31.131233 32.996752 54.993904 11.065129-25.997472 16.598205-57.524949 16.598205-94.589598V337.57192c60.793191-6.130001 110.25402-15.864079 148.38351-29.197114l22.79783 52.39426c-35.995712 9.598925-75.460348 16.398547-118.386741 20.397843v53.193915h118.386741z m81.990689 262.769929h-53.594253V356.369431h53.594253v340.761322z m311.965572-76.39106c0 22.93196-3.799638 40.160878-11.398915 51.693922-7.599277 11.529973-18.666453 18.663382-33.19641 21.397156-14.532004 2.730702-37.26533 4.099637-68.192811 4.099637-2.133777-11.598573-4.468236-22.397491-6.99928-32.396756h-26.19713v-40.395347l-154.782792 9.598924-3.999296-44.794983 30.796423-1.199993V438.36012h-22.797831v-43.995329h225.174909v43.995329h-26.396788v141.583886l35.596397-2.399987c-1.334123 15.733022-2.26893 30.131921-2.799302 43.195674l-32.796071 1.799991v22.79783c12.798567 0 21.697154-0.464844 26.696786-1.399651 4.999632-0.930712 9.198586-3.630697 12.598909-8.098933 3.399299-4.46414 5.098949-10.563425 5.098949-18.297855V371.9673h-159.982082V322.772681h213.576335v297.967012zM672.13976 438.36012h79.991041v24.397139h-79.991041z" /></svg>