<?xml version="1.0" standalone="no"?><!DOCTYPE svg PUBLIC "-//W3C//DTD SVG 1.1//EN" "http://www.w3.org/Graphics/SVG/1.1/DTD/svg11.dtd"><svg class="icon" width="200px" height="200.00px" viewBox="0 0 1024 1024" version="1.1" xmlns="http://www.w3.org/2000/svg"><path fill="#333333" d="M964.881043 4.421706 747.833705 4.421706c-29.67281 0-53.758368 25.216311-53.758368 54.890144 0 29.707602 24.085558 53.79316 53.758368 53.79316l87.25118 0L567.778886 384.335389l0.070608 0.034792c-9.371438 9.69071-15.171538 22.811542-15.171538 37.34863 0 29.67281 24.048719 53.757345 53.757345 53.757345 14.536065 0 27.655873-5.8001 37.311791-15.172561l0.070608 0.071631 267.304975-271.230378 0 87.215364c0 29.707602 24.050766 53.758368 53.758368 53.758368s53.758368-24.050766 53.758368-53.758368L1018.63941 59.310827C1018.63941 29.638017 994.588645 4.421706 964.881043 4.421706zM418.459069 548.261878c-14.536065 0-27.656897 5.834892-37.34863 15.207353l-0.034792-0.071631L113.771695 834.629002l0-89.195461c0-29.709649-24.085558-53.759391-53.758368-53.759391-29.707602 0-53.79316 24.049742-53.79316 53.759391l0 218.99162c0 29.709649 24.085558 53.79316 53.79316 53.79316l218.992643 0c29.708626 0 53.758368-24.083511 53.758368-53.79316 0-29.671787-24.049742-53.756321-53.758368-53.756321l-89.195461 0 267.303952-271.231401-0.069585-0.070608c9.372461-9.654894 15.172561-22.775726 15.172561-37.312814C472.217437 572.346413 448.132902 548.261878 418.459069 548.261878zM457.115484 384.335389 189.811532 113.103987l89.195461 0c29.708626 0 53.758368-24.085558 53.758368-53.79316 0-29.673833-24.049742-54.890144-53.758368-54.890144L60.013327 4.420683c-29.707602 0-53.79316 25.216311-53.79316 54.890144l0 217.047338c0 29.707602 24.085558 53.758368 53.79316 53.758368 29.673833 0 53.758368-24.050766 53.758368-53.758368l0-87.215364 267.303952 271.230378 0.034792-0.071631c9.69071 9.372461 22.812565 15.172561 37.34863 15.172561 29.673833 0 53.758368-24.084535 53.758368-53.757345 0-14.537088-5.8001-27.65792-15.172561-37.34863L457.115484 384.335389zM964.881043 691.674149c-29.707602 0-53.758368 24.049742-53.758368 53.759391l0 89.195461L643.8177 563.3976l-0.070608 0.071631c-9.655917-9.372461-22.775726-15.207353-37.311791-15.207353-29.708626 0-53.757345 24.084535-53.757345 53.792137 0 14.537088 5.8001 27.65792 15.171538 37.312814l-0.070608 0.070608 267.305999 271.231401-87.25118 0c-29.67281 0-53.758368 24.084535-53.758368 53.756321 0 29.709649 24.085558 53.79316 53.758368 53.79316l217.047338 0c29.707602 0 53.758368-24.083511 53.758368-53.79316L1018.63941 745.43354C1018.63941 715.723891 994.588645 691.674149 964.881043 691.674149z" /></svg>