<?xml version="1.0" standalone="no"?><!DOCTYPE svg PUBLIC "-//W3C//DTD SVG 1.1//EN" "http://www.w3.org/Graphics/SVG/1.1/DTD/svg11.dtd"><svg class="icon" width="200px" height="200.00px" viewBox="0 0 1024 1024" version="1.1" xmlns="http://www.w3.org/2000/svg"><path fill="#333333" d="M752.3552 271.6471l-13.1266-13.1266c-14.501-14.4988-37.9942-14.4988-52.4998 0l-173.0763 173.0763-168.908-168.9238c-14.6525-14.6321-38.3627-14.6321-53.0061 0l-13.2329 13.2487c-14.6479 14.6321-14.6479 38.3582 0 52.988l168.908 168.9238-169.8167 169.8235c-14.4988 14.4988-14.4988 38.0078 0 52.4953l13.1312 13.1289c14.4965 14.4988 37.9942 14.4988 52.493 0l169.819-169.8235 178.4269 178.4292c14.6344 14.6344 38.3559 14.6344 52.9813 0l13.2532-13.2419c14.6321-14.6389 14.6321-38.365 0-53.0061l-178.4269-178.4111 173.0763-173.0809C766.8585 309.6413 766.8585 286.1458 752.3552 271.6471z" /></svg>